{"title":"18+ Puppet Master The Littlest Reich 2018 UNCENSORED BRRip x264 ","magnet":"magnet:?xt=urn:btih:e202375a41500a160735a8a0470a76c4fef3201c&dn=18%2B+Puppet+Master+The+Littlest+Reich+2018+UNCENSORED+BRRip+x264+&tr=udp%3A%2F%2Ftracker.leechers-paradise.org%3A6969&tr=udp%3A%2F%2Fzer0day.ch%3A1337&tr=udp%3A%2F%2Fopen.demonii.com%3A1337&tr=udp%3A%2F%2Ftracker.coppersurfer.tk%3A6969&tr=udp%3A%2F%2Fexodus.desync.com%3A6969","uploader":"basicssom","categoryP":"video","categoryS":"movies","size":"861706677","seeders":"5","leechers":"15","description":"18+ Puppet Master The Littlest Reich 2018 UNCENSORED Movies BRRip x264 AAC with Sample &#x263B;rDX&#x263B;\r\n\r\nSCREEN SHOTS &amp; POSTER:\r\n   <a href=\"\nhttp://iphonehosting.eu/2018/9/atm/index.html\" rel=\"nofollow\" target=\"_NEW\">\nhttp://iphonehosting.eu/2018/9/atm/index.html</a> <a href=\"\nhttp://iphonehosting.eu/2018/9/atm/1.html\" rel=\"nofollow\" target=\"_NEW\">\nhttp://iphonehosting.eu/2018/9/atm/1.html</a> <a href=\"\nhttp://iphonehosting.eu/2018/9/atm/2.html\" rel=\"nofollow\" target=\"_NEW\">\nhttp://iphonehosting.eu/2018/9/atm/2.html</a>   <a href=\"\nhttp://iphonehosting.eu/2018/9/atm/3.html\" rel=\"nofollow\" target=\"_NEW\">\nhttp://iphonehosting.eu/2018/9/atm/3.html</a>   <a href=\"\nhttp://iphonehosting.eu/2018/9/atm/4.html\" rel=\"nofollow\" target=\"_NEW\">\nhttp://iphonehosting.eu/2018/9/atm/4.html</a>   <a href=\"\nhttp://iphonehosting.eu/2018/9/atm/5.html\" rel=\"nofollow\" target=\"_NEW\">\nhttp://iphonehosting.eu/2018/9/atm/5.html</a>   <a href=\"\nhttp://iphonehosting.eu/2018/9/atm/6.html\" rel=\"nofollow\" target=\"_NEW\">\nhttp://iphonehosting.eu/2018/9/atm/6.html</a>   <a href=\"\nhttp://iphonehosting.eu/2018/9/atm/7.html\" rel=\"nofollow\" target=\"_NEW\">\nhttp://iphonehosting.eu/2018/9/atm/7.html</a>   <a href=\"\nhttp://iphonehosting.eu/2018/9/atm/8.html\" rel=\"nofollow\" target=\"_NEW\">\nhttp://iphonehosting.eu/2018/9/atm/8.html</a>   <a href=\"\nhttp://iphonehosting.eu/2018/9/atm/9.html\" rel=\"nofollow\" target=\"_NEW\">\nhttp://iphonehosting.eu/2018/9/atm/9.html</a>   <a href=\"\nhttp://iphonehosting.eu/2018/9/atm/10.html\" rel=\"nofollow\" target=\"_NEW\">\nhttp://iphonehosting.eu/2018/9/atm/10.html</a>\r\n\r\nFile size                                : 813 MiB\r\nDuration                                 : 1 h 29 min\r\nOverall bit rate mode                    : Constant\r\nOverall bit rate                         : 1 263 kb/s\r\nMovie name                               : Puppet Master The Littlest Reich 2018 Movies BRRip x264 AAC &#x263B;rDX&#x263B;\r\n\r\nVideo\r\nID                                       : 2\r\nFormat                                   : AVC\r\nFormat/Info                              : Advanced Video Codec\r\nFormat profile                           : Main@L3\r\nFormat settings, CABAC                   : Yes\r\nFormat settings, ReFrames                : 2 frames\r\nFormat settings, GOP                     : M=1, N=25\r\nCodec ID                                 : V_MPEG4/ISO/AVC\r\nDuration                                 : 1 h 29 min\r\nBit rate mode                            : Constant\r\nBit rate                                 : 1 200 kb/s\r\nWidth                                    : 720 pixels\r\nHeight                                   : 304 pixels\r\nDisplay aspect ratio                     : 2.35:1\r\nFrame rate mode                          : Constant\r\nFrame rate                               : 29.970 (30000/1001) FPS\r\nColor space                              : YUV\r\nChroma subsampling                       : 4:2:0\r\nBit depth                                : 8 bits\r\nScan type                                : Progressive\r\nBits/(Pixel*Frame)                       : 0.183\r\nStream size                              : 755 MiB (93%)\r\nTitle                                    : &#x263B;rDX&#x263B;\r\nDefault                                  : Yes\r\nForced                                   : No\r\n\r\nAudio\r\nID                                       : 1\r\nFormat                                   : MPEG Audio\r\nFormat version                           : Version 1\r\nFormat profile                           : Layer 3\r\nMode                                     : Joint stereo\r\nMode extension                           : MS Stereo\r\nCodec ID                                 : A_MPEG/L3\r\nCodec ID/Hint                            : MP3\r\nDuration                                 : 1 h 29 min\r\nBit rate mode                            : Constant\r\nBit rate                                 : 64.0 kb/s\r\nChannel(s)                               : 2 channels\r\nSampling rate                            : 44.1 kHz\r\nCompression mode                         : Lossy\r\nStream size                              : 41.2 MiB (5%)\r\nTitle                                    : &#x263B;rDX&#x263B;\r\nDefault                                  : Yes\r\nForced                                   : No\r\n <a href=\"\nhttps://www.imdb.com/title/tt5685006/\" rel=\"nofollow\" target=\"_NEW\">\nhttps://www.imdb.com/title/tt5685006/</a>","last_updated":"2018-09-22T12:15:44.369Z","parsed":{"xt":"urn:btih:e202375a41500a160735a8a0470a76c4fef3201c","dn":"18  Puppet Master The Littlest Reich 2018 UNCENSORED BRRip x264 ","tr":["udp://exodus.desync.com:6969","udp://open.demonii.com:1337","udp://tracker.coppersurfer.tk:6969","udp://tracker.leechers-paradise.org:6969","udp://zer0day.ch:1337"],"infoHash":"e202375a41500a160735a8a0470a76c4fef3201c","infoHashBuffer":{"type":"Buffer","data":[226,2,55,90,65,80,10,22,7,53,168,160,71,10,118,196,254,243,32,28]},"name":"18  Puppet Master The Littlest Reich 2018 UNCENSORED BRRip x264 ","announce":["udp://exodus.desync.com:6969","udp://open.demonii.com:1337","udp://tracker.coppersurfer.tk:6969","udp://tracker.leechers-paradise.org:6969","udp://zer0day.ch:1337"],"urlList":[]}}